<svg width="132" height="200" viewBox="0 0 132 200" fill="none" xmlns="http://www.w3.org/2000/svg">
<path d="M120.723 89.8321C120.011 88.4504 119.11 87.1733 117.959 86.294C117.582 86.0009 117.436 85.4147 117.498 84.8704C117.561 84.3261 117.75 83.8446 117.938 83.363C119.864 78.2548 120.032 72.0997 116.912 67.4521C113.165 61.8413 106.549 57.6542 100.017 56.2516C95.6209 55.3095 91.3919 53.9277 86.8907 53.4462C86.4511 53.4043 86.0115 53.3834 85.5928 53.3625C86.0533 39.1891 81.8872 24.0946 73.4083 11.4286C69.8911 6.17381 65.0341 0.918996 59.2349 0.102511C52.9752 -0.77678 47.8251 4.12213 46.3596 10.1306C44.8941 16.1391 46.2968 22.9013 48.2019 29.3076C50.5048 37.0956 53.5614 44.758 57.2251 52.1691C52.3681 47.4586 47.3227 43.0412 42.1516 38.9798C37.3364 35.2114 32.3119 31.6733 27.2455 29.6844C22.1791 27.6955 17.008 27.4024 13.7212 29.9775C8.82225 33.8087 9.28282 43.5018 13.6374 51.8551C17.992 60.2084 25.466 67.1171 32.9818 71.4717C38.9275 74.926 44.9988 76.8102 50.5886 77.0824C50.442 77.3546 50.2955 77.6058 50.1699 77.857C49.9187 78.3176 49.6883 78.7782 49.4581 79.2387C48.0763 81.9604 46.8411 84.8495 45.7734 87.8642C44.9779 90.1252 44.287 92.6794 43.973 95.2335C42.9052 98.6041 41.691 101.891 39.9115 104.927C35.9337 111.752 32.3119 112.212 26.8058 117.886C16.1915 128.835 12.2766 145.918 12.2766 160.887C12.2766 159.652 10.3924 157.914 9.6806 157.098C7.90108 155.067 5.95408 154.062 3.69304 155.8C3.58837 155.863 3.50461 155.946 3.42087 156.03C-0.577811 159.401 -0.556873 165.242 0.887677 169.994C1.64136 172.465 2.75094 174.83 4.19549 176.924C4.88636 177.95 5.57723 178.808 6.58214 179.457C7.7964 180.211 9.15721 180.713 10.1202 181.865C11.7951 183.895 11.6904 186.805 12.0044 189.422C12.779 196.017 17.7826 199.953 23.7702 199.953H91.1197C96.4164 199.953 100.122 200.141 104.623 199.764C106.465 199.639 108.496 199.367 109.794 197.922C110.673 196.938 111.05 195.536 111.134 194.196C111.302 191.327 110.004 188.355 107.847 186.596C106.507 185.507 104.895 184.942 103.22 184.879C103.22 169.366 105.293 153.727 105.293 138.214C105.293 135.367 104.665 127.286 103.974 118.891C110.757 117.781 117.938 114.913 121.288 107.209C123.633 101.828 123.423 94.9613 120.723 89.8112V89.8321Z" fill="#BCBCBC"/>
<path d="M92.0615 172.402V199.953" stroke="#0C0C04" stroke-width="2.72873" stroke-linecap="round" stroke-linejoin="round"/>
<path d="M34.5518 140.056C38.3201 134.823 44.3496 131.326 50.714 130.677C59.1719 129.819 68.9488 133.964 71.9426 142.359C74.7479 150.252 73.6593 159.359 71.482 167.273C69.535 174.37 64.9083 179.331 62.8566 186.261C63.8196 185.842 64.5105 185.633 65.2432 185.361C67.7974 184.461 71.0214 185.361 73.1778 187.015C75.3341 188.669 76.4856 191.851 76.339 194.573C76.2762 195.85 75.8784 197.148 74.9991 198.069C73.7011 199.43 71.6704 199.681 69.8071 199.806C67.4414 199.974 65.2851 200.016 63.0241 199.995H36.75" stroke="#0C0C04" stroke-width="2.72873" stroke-linecap="round" stroke-linejoin="round"/>
<path d="M11.4812 164.698C10.1413 173.135 10.3926 181.844 12.193 190.176" stroke="#0C0C04" stroke-width="2.72873" stroke-linecap="round" stroke-linejoin="round"/>
<path d="M104.539 93.0984L100.289 93.0146" stroke="#0C0C04" stroke-width="2.72873" stroke-linecap="round" stroke-linejoin="round"/>
<path d="M102.466 93.0146C102.403 95.2547 102.948 97.5367 104.204 99.065C105.816 100.991 108.726 101.2 110.233 99.0231" stroke="#0C0C04" stroke-width="2.72873" stroke-linecap="round" stroke-linejoin="round"/>
<path d="M94.1133 98.7299C95.3903 101.033 98.3004 101.221 100.122 99.4417C101.629 97.9553 102.425 95.4849 102.467 93.0145" stroke="#0C0C04" stroke-width="2.72873" stroke-linecap="round" stroke-linejoin="round"/>
<path d="M83.3108 79.9297C84.6521 79.9297 85.7393 78.6643 85.7393 77.1034C85.7393 75.5425 84.6521 74.2771 83.3108 74.2771C81.9696 74.2771 80.8823 75.5425 80.8823 77.1034C80.8823 78.6643 81.9696 79.9297 83.3108 79.9297Z" fill="#0C0C04"/>
<path d="M104.12 79.9508C105.462 79.9508 106.549 78.6854 106.549 77.1245C106.549 75.5636 105.462 74.2982 104.12 74.2982C102.779 74.2982 101.692 75.5636 101.692 77.1245C101.692 78.6854 102.779 79.9508 104.12 79.9508Z" fill="#0C0C04"/>
<path d="M115.865 93.789C120.555 91.4023 125.223 89.0157 129.913 86.629" stroke="#0C0C04" stroke-width="2.72873" stroke-linecap="round" stroke-linejoin="round"/>
<path d="M118.671 98.458C122.042 98.772 125.433 99.0861 128.804 99.3792" stroke="#0C0C04" stroke-width="2.72873" stroke-linecap="round" stroke-linejoin="round"/>
<path d="M86.9955 92.7007C84.8391 92.3866 78.4747 91.5073 76.3184 91.2142" stroke="#0C0C04" stroke-width="2.72873" stroke-linecap="round" stroke-linejoin="round"/>
<path d="M86.9953 98.7087C81.8451 100.216 76.6741 101.723 71.5239 103.231" stroke="#0C0C04" stroke-width="2.72873" stroke-linecap="round" stroke-linejoin="round"/>
</svg>
